<?xml version="1.0" standalone="no"?>
<!DOCTYPE svg PUBLIC "-//W3C//DTD SVG 20010904//EN"
 "http://www.w3.org/TR/2001/REC-SVG-20010904/DTD/svg10.dtd">
<svg version="1.0" xmlns="http://www.w3.org/2000/svg"
 width="512.000000pt" height="512.000000pt" viewBox="0 0 512.000000 512.000000"
 preserveAspectRatio="xMidYMid meet">
<metadata>
Created by potrace 1.11, written by Peter Selinger 2001-2013
</metadata>
<g transform="translate(0.000000,512.000000) scale(0.100000,-0.100000)"
fill="#000000" stroke="none">
<path d="M2138 4985 c-2 -2 -29 -6 -61 -10 -135 -15 -304 -79 -429 -161 -166
-111 -348 -340 -393 -498 -64 -220 51 -408 310 -509 80 -32 158 -41 325 -38
91 1 201 3 245 4 388 6 645 -169 977 -663 138 -205 282 -360 443 -475 124 -89
327 -173 463 -191 26 -3 56 -8 67 -10 26 -6 219 -4 265 2 368 47 664 230 745
459 24 67 28 188 9 261 -58 220 -291 512 -617 772 -113 90 -360 262 -557 388
-117 74 -312 195 -350 216 -25 14 -74 42 -110 63 -312 179 -736 341 -966 370
-27 4 -60 9 -74 11 -27 6 -287 13 -292 9z"/>
<path d="M1718 3295 c-19 -11 -29 -27 -34 -53 -4 -20 -7 -335 -7 -700 0 -717
-2 -699 54 -722 59 -25 118 14 120 78 5 186 3 1315 -3 1341 -3 19 -13 40 -20
48 -22 21 -79 25 -110 8z"/>
<path d="M2265 2951 c-11 -5 -29 -18 -39 -30 -18 -20 -19 -42 -19 -445 0 -378
2 -428 17 -450 33 -52 118 -48 148 7 9 16 12 131 12 445 l-1 423 -24 24 c-28
28 -65 38 -94 26z"/>
<path d="M2765 2665 c-28 -27 -27 -14 -28 -267 -1 -171 0 -179 22 -202 42 -44
105 -40 137 9 14 22 17 53 16 203 0 97 -1 190 -1 205 -2 69 -96 103 -146 52z"/>
<path d="M4645 1929 c-321 -74 -290 -67 -355 -80 -30 -5 -68 -14 -85 -19 -16
-5 -43 -11 -60 -14 -16 -3 -91 -19 -165 -36 -74 -17 -145 -32 -158 -34 -12 -3
-30 -7 -40 -10 -9 -3 -28 -7 -42 -10 -14 -3 -106 -23 -205 -46 -99 -22 -189
-42 -200 -45 -11 -2 -29 -6 -40 -9 -135 -30 -395 -89 -410 -92 -11 -2 -72 -15
-135 -30 -63 -14 -122 -27 -131 -29 -9 -2 -79 -18 -155 -35 -77 -17 -148 -33
-159 -36 -11 -2 -158 -34 -327 -72 -339 -76 -363 -85 -399 -161 -38 -80 -10
-171 69 -224 23 -16 42 -32 42 -36 0 -5 -112 -32 -315 -76 -11 -2 -92 -20
-180 -40 -88 -20 -169 -39 -180 -41 -11 -2 -72 -15 -135 -30 -63 -14 -122 -27
-130 -29 -8 -2 -35 -8 -60 -14 -25 -5 -56 -12 -70 -15 -30 -5 -315 -70 -414
-93 -80 -19 -140 -60 -169 -116 -71 -137 12 -297 166 -321 28 -5 122 12 335
59 164 36 313 69 332 75 32 9 98 23 365 82 50 10 99 21 110 24 11 3 29 7 40 9
11 3 72 16 135 30 63 15 126 28 140 31 14 3 33 7 42 10 9 3 27 7 40 10 74 14
76 14 92 -11 58 -89 218 -193 326 -211 62 -11 148 -12 190 -3 19 4 47 10 63
13 15 2 35 7 45 10 9 3 28 7 42 10 14 2 77 16 140 30 63 15 129 29 145 32 17
3 46 9 65 14 38 10 345 80 480 110 47 10 209 46 360 80 151 34 286 64 300 66
13 3 60 14 105 24 45 10 92 21 105 24 14 2 106 23 205 45 99 23 189 43 200 45
169 34 262 76 345 156 164 158 200 328 132 619 -33 137 -38 181 -23 181 14 0
41 77 41 116 0 57 -40 123 -92 150 -53 28 -99 23 -363 -37z"/>
</g>
</svg>
